inDegrees=no
num_controls=7
num_derivatives=13
num_iterations=121
num_multipliers=7
num_parameters=0
num_slacks=7
num_states=26
objective=5.014976
objective_accelerations=0.553411
objective_balance=0.022292
objective_effort=0.150925
objective_height=4.190049
objective_ligament=0.098300
solver_duration=1332.159948
status=Solve_Succeeded
success=true
DataType=double
version=3
OpenSimVersion=4.4-2022-07-23-0e9fedc
endheader
time	/jointset/ground_pelvis/pelvis_tilt/value	/jointset/ground_pelvis/pelvis_tx/value	/jointset/ground_pelvis/pelvis_ty/value	/jointset/hip_l/hip_flexion_l/value	/jointset/hip_l/hip_adduction_l/value	/jointset/hip_l/hip_rotation_l/value	/jointset/back/lumbar_extension/value	/jointset/patellofemoral_l/patellar_flexion_l/value	/jointset/knee_l/knee_flexion_l/value	/jointset/knee_l/knee_adduction_l/value	/jointset/knee_l/knee_rotation_l/value	/jointset/ankle_l/ankle_angle_l/value	/jointset/subtalar_l/subtalar_angle_l/value	/jointset/ground_pelvis/pelvis_tilt/speed	/jointset/ground_pelvis/pelvis_tx/speed	/jointset/ground_pelvis/pelvis_ty/speed	/jointset/hip_l/hip_flexion_l/speed	/jointset/hip_l/hip_adduction_l/speed	/jointset/hip_l/hip_rotation_l/speed	/jointset/back/lumbar_extension/speed	/jointset/patellofemoral_l/patellar_flexion_l/speed	/jointset/knee_l/knee_flexion_l/speed	/jointset/knee_l/knee_adduction_l/speed	/jointset/knee_l/knee_rotation_l/speed	/jointset/ankle_l/ankle_angle_l/speed	/jointset/subtalar_l/subtalar_angle_l/speed	/forceset/tau_hip_flexion_l	/forceset/tau_hip_adduction_l	/forceset/tau_hip_rotation_l	/forceset/tau_knee_flexion_l	/forceset/tau_ankle_angle_l	/forceset/tau_subtalar_angle_l	/forceset/tau_lumbar_extension	lambda_cid13_p0	lambda_cid13_p1	lambda_cid13_p2	lambda_cid13_p3	lambda_cid13_p4	lambda_cid13_p5	lambda_cid14_p0	/jointset/ground_pelvis/pelvis_tilt/accel	/jointset/ground_pelvis/pelvis_tx/accel	/jointset/ground_pelvis/pelvis_ty/accel	/jointset/hip_l/hip_flexion_l/accel	/jointset/hip_l/hip_adduction_l/accel	/jointset/hip_l/hip_rotation_l/accel	/jointset/back/lumbar_extension/accel	/jointset/patellofemoral_l/patellar_flexion_l/accel	/jointset/knee_l/knee_flexion_l/accel	/jointset/knee_l/knee_adduction_l/accel	/jointset/knee_l/knee_rotation_l/accel	/jointset/ankle_l/ankle_angle_l/accel	/jointset/subtalar_l/subtalar_angle_l/accel	gamma_cid13_p0	gamma_cid13_p1	gamma_cid13_p2	gamma_cid13_p3	gamma_cid13_p4	gamma_cid13_p5	gamma_cid14_p0
1.5	-0.3039982181325661	0.07632102358687989	0.8133997619466729	0.873851270853778	-0.3605037769384295	-0.08119528291300109	-0.3144049890491504	0.7300543350487021	0.7300543350486971	-0.04786214474303647	-0.1744506179760473	0.2717790677488544	0.1511015179999427	0.3846286385769938	0.230538667068913	0.3916083119116152	-1.961834174132451	0.02447233624054531	-0.5952845299014561	0.6200117514897067	-1.971130031739244	-1.971130031739244	-0.2325617630413641	0.004409508201290849	-0.54828164605198	-0.1808035404933284	-0.114985674077224	0.03938416700440701	0.003691212275416213	-0.120966519947621	-0.05280025865289148	0.009725670890581307	0.114633041962937	-40.56773667343205	0.2685602682543203	2.658218528306276	-0.6603554127544026	-434.1063542276297	-57.68530270953575	-13.94124230350082	0.3627085534484263	0.4103386432496349	-0.6300512410590278	-1.018253558656697	0.235903875070319	-0.2902355264687975	1.294570432044589	-0.9928592875046135	-0.9928592875046137	-0.4562596706001099	0.2429288383775077	-0.4225727537541103	0.3188703307865851	5.318868527416571e-08	3.626686377974746e-06	-9.960902838349918e-07	4.377617591203822e-07	3.181170122227211e-07	2.173279008604724e-06	4.040644489945843e-07
1.51	-0.3001339819487978	0.0786463420305378	0.8172835470163655	0.8541843220032355	-0.3602476408855907	-0.08716701515685225	-0.3081415683920145	0.7102958011708959	0.7102958011709436	-0.05020853613591347	-0.1743988662938439	0.2662753661461175	0.1493090046047788	0.388169370762552	0.2344618125246924	0.3850653283720646	-1.971255177147044	0.02676874893294077	-0.5989703922689454	0.6325632385828357	-1.980292007469671	-1.980292007469668	-0.2367082493909644	0.005979247309367732	-0.5524045790431924	-0.1776700998535022	-0.111828223007919	0.03899396274481932	0.004345479658675972	-0.1170758950348724	-0.05423598068767285	0.008449905016431336	0.1117617949644649	-41.00095611736689	0.7392246908157815	2.765088364182329	0.1429095052322527	-431.5786778124169	-56.95910709456744	-14.74446786842478	0.34236199197287	0.3739428503316857	-0.678932092447712	-0.8589773489931749	0.2280089853367014	-0.3938424358362088	1.219066644810563	-0.8352011560666018	-0.8352011560662546	-0.391909106610879	0.1199877064259136	-0.398893543138456	0.3141527280134989	-9.319499626458132e-08	4.088137581951148e-06	2.454216583754933e-07	5.505285897485827e-07	9.451822925065771e-08	1.875180057969432e-06	2.855262179523969e-07
1.52	-0.2962358171550061	0.08100901999947117	0.821099400214255	0.8344321723873206	-0.3599682409020271	-0.09317282219315616	-0.3017559071045754	0.6904541806477873	0.690454180647774	-0.05259600559043511	-0.1743302189685495	0.2607320872192013	0.1475485399754999	0.3914143605826383	0.2380105721240071	0.3780219375508242	-1.978874327206935	0.02912512238582359	-0.6020994883943024	0.6444598775505095	-1.987747360810288	-1.987747360810283	-0.2407773753193828	0.007788636793568064	-0.5561971108877499	-0.1743937873163566	-0.1086707719385617	0.03860375848530405	0.004999747040934356	-0.1131852701220807	-0.05567170272241967	0.007174139142405504	0.1088905479660169	-41.43174274233396	1.205663714712591	2.876971855490017	0.9302413291163295	-429.0372691836417	-56.2440854699816	-15.54837767221564	0.3035600803540219	0.3354614719567383	-0.7301326973970158	-0.6578829677163074	0.2478960271678879	-0.1788822780422783	1.163600806953564	-0.6515348095428449	-0.6515348095428518	-0.44078758636367	0.2908589136022538	-0.3564925244230717	0.3474447102505236	-1.383468595562698e-07	4.327862660192359e-06	5.726371472656228e-07	5.964539959962276e-07	2.840128746119565e-08	1.840100758530945e-06	2.648806955272439e-07
1.53	-0.2923068445683662	0.08340565325420325	0.8248424312391401	0.8146123134204297	-0.3596655087774173	-0.09920618342536658	-0.2952547483680822	0.6705463836553994	0.6705463836553861	-0.0550254176368408	-0.1742420648338457	0.2551528874401338	0.1458209877829015	0.3942960477380325	0.2412842648253338	0.370511662733429	-1.984814986361324	0.03143281370274034	-0.604516391258818	0.6556594265299553	-1.99353465588446	-1.993534655884455	-0.2450696459455738	0.009864883371038137	-0.5595419387683882	-0.1710730151984677	-0.1044443123705804	0.03667230010590234	0.005549055288418347	-0.1116475318072098	-0.05389799455089948	0.006269757764281722	0.1053888071245176	-40.80285959420885	1.401787671669469	2.944548965197492	0.7026798735813328	-426.7813418700995	-56.37419542464077	-16.34541755791965	0.2678617703668583	0.3186626550550542	-0.7723288197338851	-0.519783221403962	0.2235356312777473	-0.2642979968327797	1.081265460767365	-0.5007981640820547	-0.5007981640819676	-0.417498533164578	0.1693951161763406	-0.3081925490991705	0.3303079023446415	-7.593991596045966e-08	4.332003729839932e-06	-7.158734549711509e-08	5.713603888395329e-07	1.296088019282457e-07	2.084479838489061e-06	3.482461760076887e-07
1.54	-0.2883515773627284	0.08583409133311527	0.8285081887266874	0.7947415226955713	-0.3593394337501735	-0.1052619544274547	-0.2886449674383302	0.6505890194507186	0.6505890194507161	-0.05749656273599107	-0.1741324707160981	0.2495432964564158	0.1441278261994393	0.3966732843828192	0.2443715369599943	0.362567230083075	-1.98906067879986	0.03379370291262459	-0.6065814423703896	0.666184316202496	-1.997660803267738	-1.997660803267732	-0.2491239858684668	0.01207663340279187	-0.5622753518176239	-0.1675156654891119	-0.1002178528026068	0.0347408417265156	0.006098363535904337	-0.1101097934923379	-0.05212428637937256	0.005365376386180217	0.1018870662830072	-40.17504606715	1.596931868846621	3.01361588722181	0.4695029484143108	-424.5473972496193	-56.54094371193975	-17.12999305353741	0.202669978232407	0.2981773586235238	-0.8169642639888053	-0.3188896245457603	0.2585356057614286	-0.1085119274534515	1.028668945572497	-0.3193052713640703	-0.3193052713640729	-0.3932014457039836	0.31795960445905	-0.2342095581424731	0.394760228543987	-5.434324577253663e-08	4.230526357680154e-06	-3.305199992719576e-07	5.483205297183741e-07	1.59061999441545e-07	2.110983479443259e-06	3.747117272621119e-07
1.55	-0.2843750413809281	0.0882922075202716	0.8320923724039915	0.7748372596561687	-0.3589891927937945	-0.111336504297593	-0.2819332430642389	0.6305990363164089	0.630599036316387	-0.06000653264275752	-0.1739998020609217	0.2439093426328506	0.142471742479638	0.3985680603510634	0.2471947378141043	0.354204356756295	-1.991487403005731	0.03626317961069142	-0.6082646213571401	0.6760345444290108	-2.000039190282539	-2.000039190282539	-0.2528299059588546	0.01446950384241634	-0.5644337333923233	-0.163671660471139	-0.09664549973740998	0.03386145318991094	0.006583828550747631	-0.1073033043648673	-0.05217652322721314	0.003979503093537629	0.09877726484337288	-40.19079653356772	2.085770477856003	3.067957303510858	0.8646940546178777	-422.4820672199751	-55.9887695545733	-17.89767503072976	0.1730018387313454	0.2659502826105892	-0.8557059052858346	-0.1588911749670534	0.2420338070791609	-0.1883792983679147	0.9442976332271873	-0.1526731995376174	-0.1526731995383883	-0.3526771373790642	0.2018452536788025	-0.1942733617384821	0.383029398089892	-7.976710798935052e-08	4.007358172133653e-06	-1.455294472564235e-07	5.27646945507724e-07	1.058417448124837e-07	1.886456723284259e-06	3.356186644082962e-07
1.56	-0.2803815335529253	0.09077686748273002	0.8355909759403752	0.7549178639034302	-0.3586140810493845	-0.1174259176404175	-0.2751267968334765	0.6105941557553362	0.6105941557553226	-0.06255223971969615	-0.173842825803394	0.2382562808126173	0.1408548605619494	0.4000676536237546	0.2496802920204085	0.3454512018988454	-1.99208722146597	0.03876786051876219	-0.6095541369071713	0.6851286875369788	-2.000640288617324	-2.000640288617329	-0.2562714199161533	0.0169381538806344	-0.5660969511512148	-0.1596753050665248	-0.09307314667226746	0.03298206465328671	0.007069293565834682	-0.104496815237432	-0.05222876007506622	0.002593629800862742	0.09566746340370265	-40.20896456632115	2.573189414133099	3.124630784523013	1.255023185630487	-420.4758326021676	-55.47051813739679	-18.64384557786645	0.1236334391216029	0.2306480290623597	-0.8950205701227523	0.04649152458083559	0.2655764477622383	-0.02977924010960865	0.8774519218630824	0.03615246463923323	0.03615246463923171	-0.3403202190860826	0.3331155241778316	-0.1351767949808248	0.4252303058723205	-5.907353195948866e-08	3.870466972143477e-06	-3.782358719494367e-07	5.030827699171563e-07	1.435038796369318e-07	1.929123657397717e-06	3.534500919446705e-07
1.57	-0.276374987688426	0.09328475095455874	0.8390002014945293	0.7350012752212718	-0.3582143434433364	-0.1235246887504887	-0.2682334238867085	0.5905919528911054	0.5905919528911112	-0.06513305566229778	-0.1736600706661821	0.2325889655190556	0.139277892109321	0.4011612929860367	0.2518427517030267	0.3363384001709482	-1.990916714396077	0.0411901956554245	-0.6101375239197899	0.6934098838523213	-1.999498891975891	-1.999498891975891	-0.2598310163965672	0.01962980207877802	-0.5672712776765473	-0.1556824007782527	-0.08921684182121174	0.0312869933093669	0.00747633278241965	-0.1023461704674431	-0.0515417839892232	0.001549127357794693	0.0923880590477386	-39.97172063632394	2.872253635259526	3.206051043246124	1.408083119859503	-418.6863965803114	-55.45502286961951	-19.36374867402079	0.09021139662241998	0.2010886840766121	-0.9276599160938968	0.1994181403638783	0.2319561509144412	-0.06280031560951554	0.783050791758483	0.1982433674269517	0.1982433674277586	-0.354170475634304	0.2394837405879569	-0.0942074121546677	0.3913040979136052	1.926684187871726e-08	3.841422004098707e-06	-1.133063517528129e-06	4.736553551016919e-07	2.947690012782655e-07	2.305782704351741e-06	4.424371324687815e-07
1.58	-0.2723599089879395	0.09581266777245639	0.8423166490430104	0.7151058091782451	-0.3577901036650659	-0.1296273301074314	-0.26126131951571	0.5706101860139972	0.5706101860140166	-0.06774754579238003	-0.1734499401923726	0.2269127775940701	0.137741849421097	0.4017742208219581	0.2536869612341956	0.3268956007641265	-1.987862693639375	0.04366829496392735	-0.6103281862832612	0.7008749723832152	-1.996553091193195	-1.996553091193189	-0.2630062574015799	0.02241322119513856	-0.5678714774356878	-0.1514901521856185	-0.0853605369701273	0.02959192196551066	0.007883371998837251	-0.1001955256974355	-0.05085480790335738	0.0005046249148186568	0.0891086546917844	-39.73854223336243	3.169463073883649	3.290700192658022	1.551182874354622	-416.9784161330098	-55.50704759201989	-20.05257453228644	0.02749113384929972	0.1669979987725197	-0.9610201059076631	0.4231942619428055	0.2767292821303938	0.04876568971987529	0.714230364973332	0.3970332928920615	0.3970332928920635	-0.2634491240057686	0.3514697078212641	-0.02035144174235095	0.465099166744787	6.365437223466895e-08	3.889314154999532e-06	-1.609255424703466e-06	4.644867556106305e-07	3.840107915773442e-07	2.572762920193594e-06	5.042370201647816e-07
1.59	-0.2683410877495869	0.09835743062438447	0.8455371038261423	0.6952502473867169	-0.3573410814272053	-0.1357297313974985	-0.2542187314449129	0.5506669806933173	0.5506669806933047	-0.07039248144536533	-0.1732116820676192	0.2212334695471086	0.136248386108571	0.4019119732652385	0.2552109036960784	0.3171496105109776	-1.98293701872264	0.04612836545198731	-0.6100549011606287	0.7074950089325283	-1.991778427858368	-1.991778427858363	-0.2659572779118188	0.02526166496561917	-0.567891568572254	-0.1471896542355328	-0.08147991676654055	0.02798443369213336	0.008242112653788576	-0.09821953745804426	-0.04985387996509617	-0.000874107265958343	0.08582866461570461	-39.44093559526146	3.626420760634596	3.32032599065897	1.652226457929374	-415.4631236745439	-55.2888239723926	-20.70548081255192	-0.004774296838591301	0.1369852984279482	-0.9881718681477232	0.574168694351485	0.2292743815311517	0.03165466341538724	0.613745373404318	0.5640058205802719	0.5640058205801184	-0.3068613127737685	0.2547345702589984	0.02208091924765683	0.4140150244650392	6.19630435789924e-08	4.041620967326513e-06	-1.707298829759986e-06	4.828122626312576e-07	3.890780607690816e-07	2.690893293811795e-06	5.291400575940618e-07
